<svg xmlns="http://www.w3.org/2000/svg" width="80" height="80" fill="#883682">
  <path d="M40,0 C62.0569231,0 80,17.9430769 80,40 C80,62.0569231 62.0569231,80 40,80 C17.9430769,80 0,62.0569231 0,40 C0,17.9430769 17.9430769,0 40,0 Z M40,3.07692308 C19.6415385,3.07692308 3.07692308,19.6415385 3.07692308,40 C3.07692308,60.3584615 19.6415385,76.9230769 40,76.9230769 C60.3584615,76.9230769 76.9230769,60.3584615 76.9230769,40 C76.9230769,19.6415385 60.3584615,3.07692308 40,3.07692308 Z M40,56.9230769 C40.7975962,56.9230769 41.451863,57.527494 41.5305307,58.3040584 L41.5384615,58.4615385 L41.5384615,61.5384615 C41.5384615,62.3892308 40.8507692,63.0769231 40,63.0769231 C39.2024038,63.0769231 38.548137,62.472506 38.4694693,61.6959416 L38.4615385,61.5384615 L38.4615385,58.4615385 C38.4615385,57.6107692 39.1492308,56.9230769 40,56.9230769 Z M39.5910491,13.8526686 L40.0859615,13.8469231 L40.0859615,13.8469231 L40.1738462,13.8476923 C46.7707692,13.94 52.2138462,19.3830769 52.3061538,25.9784615 C52.3643357,30.1213054 50.3827633,33.9458897 46.9870841,36.2864903 L46.6646154,36.5015385 C43.6035732,38.4772208 41.6663604,42.0896598 41.5445642,46.0044823 L41.5384615,46.3969231 L41.5384615,50.7692308 C41.5384615,51.62 40.8507692,52.3076923 40,52.3076923 C39.2024038,52.3076923 38.548137,51.7032752 38.4694693,50.9267109 L38.4615385,50.7692308 L38.4615385,46.3969231 C38.4615385,41.3652991 40.770774,36.8164625 44.6597321,34.1415772 L44.9969231,33.9169231 C47.6923077,32.1784615 49.2738462,29.2276923 49.2292308,26.0215385 C49.1615385,21.1584615 44.9953846,16.9923077 40.1323077,16.9246154 C37.6538462,16.8661538 35.2923077,17.8323077 33.5184615,19.5815385 C31.7461538,21.3292308 30.7692308,23.6646154 30.7692308,26.1538462 C30.7692308,27.0046154 30.0815385,27.6923077 29.2307692,27.6923077 C28.38,27.6923077 27.6923077,27.0046154 27.6923077,26.1538462 C27.6923077,22.8338462 28.9953846,19.7215385 31.3584615,17.3907692 C33.5832692,15.1954487 36.487695,13.9524412 39.5910491,13.8526686 L39.5910491,13.8526686 Z"/>
</svg>
