<svg xmlns="http://www.w3.org/2000/svg" width="80" height="71" fill="#E84C48">
  <path d="M40.0005244,5 C41.4414326,5 42.7408022,5.70954225 43.5208852,6.91109548 L43.6396858,7.10487143 L79.4262519,69.1151537 C80.1889075,70.4394634 80.1917108,72.0203083 79.4318585,73.3474353 C78.7074836,74.6056783 77.4415513,75.3830767 76.0114088,75.457671 L75.7842872,75.4635762 L4.21395828,75.4635762 C2.69160615,75.4635762 1.32888686,74.6717451 0.569190315,73.3474353 C-0.15066974,72.0901571 -0.188557111,70.6051653 0.460295337,69.3263127 L0.574796931,69.1151537 L36.3613631,7.10487143 C37.1212153,5.7861964 38.4837789,5 40.0005244,5 Z M39.9985924,7.64900662 L39.8732961,7.65462981 C39.6095054,7.67792827 39.1758242,7.78740831 38.8618953,8.22628905 L38.779465,8.35433349 L2.84421777,70.6874182 C2.50177176,71.2818811 2.68849259,71.8102774 2.81383562,72.0527893 L2.84140259,72.1035787 C2.95574203,72.3022548 3.27397348,72.7399589 3.9002879,72.8061224 L4.0633452,72.8145695 L75.9366548,72.8145695 C76.671572,72.8145695 77.0347297,72.3189685 77.1585974,72.1035787 C77.2710033,71.9063497 77.4902136,71.4061915 77.2256835,70.8233001 L77.1557822,70.6874182 L41.2177198,8.35433349 C40.8489318,7.71697477 40.2435127,7.64900662 39.9985924,7.64900662 Z M39.7350993,61.6887417 L39.7350993,63.807947 L37.0860927,63.807947 L37.0860927,61.6887417 L39.7350993,61.6887417 Z M39.7350993,28.8410596 L39.7350993,56.9205298 L37.0860927,56.9205298 L37.0860927,28.8410596 L39.7350993,28.8410596 Z" transform="translate(0 -5)"/>
</svg>
