<svg xmlns="http://www.w3.org/2000/svg" width="35" height="35" viewBox="0 0 35 35"><g transform="translate(99.066 173)"><path d="M10,12.778a11.417,11.417,0,0,1-5.711-1.526A11.258,11.258,0,0,1,.231,7.235a1.669,1.669,0,0,1,0-1.692A11.262,11.262,0,0,1,4.289,1.526a11.45,11.45,0,0,1,11.422,0A11.265,11.265,0,0,1,19.77,5.543a1.669,1.669,0,0,1,0,1.692,11.262,11.262,0,0,1-4.058,4.017A11.415,11.415,0,0,1,10,12.778ZM9.172,1.7A9.645,9.645,0,0,0,1.666,6.389a9.714,9.714,0,0,0,16.667,0,9.637,9.637,0,0,0-4.58-3.976,4.677,4.677,0,0,1,.969,2.864A4.722,4.722,0,1,1,5.833,3.054,1.945,1.945,0,1,0,9.172,1.7Z" transform="translate(-92 -162)" fill="#682563"/><rect width="35" height="35" transform="translate(-99.066 -173)" fill="#682563" opacity="0"/></g></svg>